<svg width="258" height="60" viewBox="0 0 258 60" fill="none" xmlns="http://www.w3.org/2000/svg">
<g clip-path="url(#clip0_2454_1108)">
<path d="M88.1739 28.3399C86.8038 26.7004 84.9106 25.5831 82.8131 25.1762C84.6156 24.6111 86.2161 23.5366 87.4216 22.0823C88.4624 20.6903 89.0015 18.987 88.9511 17.2496C88.9511 14.1408 87.8334 11.7942 85.5981 10.2099C83.3628 8.62557 80.0613 7.83507 75.6936 7.83839H64.0952V14.076V14.1707H75.021C77.0139 14.1707 78.5085 14.4995 79.4352 15.1671C80.3619 15.8347 80.8452 16.8361 80.8452 18.2162C80.8757 18.8344 80.7556 19.4507 80.4953 20.0122C80.2349 20.5737 79.8421 21.0635 79.3505 21.4396C78.3541 22.1969 76.984 22.5805 75.2253 22.5805H64.0952V28.7833H75.9726C77.8227 28.7833 79.2476 29.1902 80.2473 30.0039C80.7479 30.4223 81.1438 30.952 81.4033 31.5506C81.6628 32.1492 81.7788 32.8002 81.742 33.4516C81.7731 34.1277 81.6508 34.8021 81.3842 35.4242C81.1175 36.0463 80.7135 36.6 80.2025 37.0437C79.1761 37.9172 77.7645 38.3523 75.9676 38.349H64.0952V38.5134V45.0699H74.2687C79.5 45.0699 83.4492 44.1598 86.1163 42.3397C88.7834 40.5196 90.1119 37.8226 90.102 34.2487C90.1803 32.1128 89.4969 30.0186 88.1739 28.3399Z" fill="white"/>
<path d="M111.007 45.0249L129.67 15.6303H112.92L114.345 7.85815H144.143L125.53 37.1731H144.143L142.718 45.0448L111.007 45.0249Z" fill="white"/>
<path d="M50.4541 41.712C50.3545 41.6472 50.2499 41.5775 50.1353 41.5127L41.1674 36.3861C43.6508 35.9585 45.8874 34.6254 47.4449 32.6445C48.4107 31.5259 49.113 30.2048 49.5002 28.7786C49.8873 27.3524 49.9494 25.8575 49.6819 24.4041C49.6601 24.3442 49.659 24.2787 49.6789 24.2182C49.6988 24.1576 49.7384 24.1055 49.7915 24.0703C50.7858 23.1413 51.5702 22.0106 52.092 20.7539C52.6138 19.4972 52.861 18.1435 52.8172 16.7834C52.7733 15.4234 52.4393 14.0884 51.8376 12.868C51.2359 11.6475 50.3803 10.5697 49.3282 9.70675L48.8299 9.29822L48.5609 9.07402L39.4884 4.13672L39.2593 4.51038L39.1796 4.63992C39.1148 4.73956 39.045 4.84917 38.9852 4.96376C37.3245 7.9929 35.6721 11.0254 34.028 14.0611C33.9882 14.1359 33.9483 14.2156 33.9134 14.2903C33.4025 12.268 32.3012 10.4434 30.7498 9.04911C29.6915 8.01943 28.4155 7.24046 27.016 6.76966C25.6166 6.29885 24.1292 6.14821 22.6638 6.32886C22.6031 6.34824 22.5377 6.34591 22.4786 6.32227C22.4195 6.29863 22.3705 6.25517 22.3399 6.19933C21.4744 5.14949 20.3946 4.29668 19.1728 3.69803C17.951 3.09938 16.6153 2.76869 15.2553 2.72812C13.8953 2.68755 12.5424 2.93804 11.287 3.46279C10.0317 3.98755 8.90295 4.77448 7.97642 5.77086L7.53301 6.26908L7.29387 6.52316L1.81352 15.2718L2.17223 15.5209L2.29679 15.6156C2.39643 15.6853 2.49607 15.7601 2.60568 15.8248L11.3693 21.3101H11.4041C9.30067 21.8291 7.41121 22.9906 5.99851 24.6332C4.99149 25.713 4.23954 27.0049 3.79807 28.4138C3.3566 29.8227 3.23685 31.3127 3.44766 32.774C3.47012 32.8321 3.47252 32.896 3.45446 32.9556C3.4364 33.0152 3.39894 33.067 3.34802 33.1029C2.31643 33.9905 1.48633 35.0882 0.913279 36.3225C0.340224 37.5569 0.0374323 38.8994 0.0251683 40.2602C0.0129043 41.6211 0.29145 42.9688 0.842165 44.2133C1.39288 45.4578 2.20306 46.5703 3.21848 47.4763L3.7167 47.9098L3.97577 48.139L12.8141 53.4499L13.0582 53.0862L13.1479 52.9617C13.2126 52.862 13.2874 52.7574 13.3522 52.6428C15.1291 49.6834 16.9044 46.7224 18.6781 43.7597C18.7129 43.6999 18.7478 43.6451 18.7777 43.5853C19.2482 45.8729 20.4834 47.9322 22.2801 49.4244C23.3815 50.4084 24.6894 51.1331 26.1077 51.5452C27.526 51.9573 29.0185 52.0464 30.4758 51.8058C30.5354 51.7848 30.6005 51.7847 30.6602 51.8055C30.72 51.8263 30.7709 51.8668 30.8046 51.9204C31.7004 52.9205 32.797 53.7206 34.0229 54.2683C35.2488 54.816 36.5764 55.099 37.9191 55.099H38.0536C39.4144 55.0859 40.7565 54.7807 41.9891 54.204C43.2217 53.6272 44.316 52.7924 45.198 51.756C45.3375 51.5916 45.477 51.4272 45.6215 51.2578L45.8457 50.9887L50.9723 42.0209L50.6036 41.7818L50.4541 41.712ZM18.7229 7.51461C17.1253 8.3661 15.7761 9.61753 14.8069 11.1466C13.96 12.4818 13.108 13.8469 12.281 15.1622L11.1949 16.901L11.1301 17.0056L6.61132 14.1707L7.40846 12.8903C8.19066 11.6398 8.99278 10.3494 9.80487 9.09395C10.5057 7.96201 11.5598 7.09244 12.8044 6.61965C14.0489 6.14687 15.4146 6.0972 16.6902 6.47833C17.4305 6.6836 18.1219 7.03606 18.7229 7.51461ZM28.6872 48.0194C28.727 48.1589 28.7619 48.2934 28.8018 48.4279C28.2458 48.4161 27.6942 48.3272 27.1626 48.1639C26.2801 47.9136 25.4556 47.4917 24.7364 46.9223C24.0171 46.3529 23.4173 45.6472 22.9712 44.8457C22.525 44.0441 22.2414 43.1624 22.1365 42.2511C22.0316 41.3398 22.1075 40.4168 22.3599 39.5348C22.5233 38.9869 22.7472 38.4589 23.0275 37.9605C23.8744 36.4658 24.7513 34.9164 25.5982 33.4367C25.8772 32.9385 26.1513 32.4801 26.4253 32.0018L32.6131 35.5342C32.6131 35.584 32.5583 35.6288 32.5334 35.6737C32.2145 36.2416 31.8857 36.8046 31.537 37.3726C30.7996 38.648 30.0423 39.9683 29.3398 41.2935C28.2584 43.3657 28.021 45.776 28.6772 48.0194H28.6872ZM24.3029 10.185C24.273 10.0505 24.2431 9.91102 24.2082 9.7765C24.7627 9.80696 25.3098 9.91772 25.8324 10.1053C26.7038 10.3917 27.5102 10.8471 28.2053 11.4455C28.9005 12.0439 29.4708 12.7736 29.8836 13.5927C30.2964 14.4118 30.5436 15.3043 30.611 16.2191C30.6784 17.1338 30.5647 18.0529 30.2765 18.9237C30.0956 19.4662 29.8497 19.9848 29.5441 20.4682C28.6423 21.9628 27.7007 23.4575 26.789 24.8823L25.9071 26.2873L19.8688 22.4959C19.8987 22.456 19.9236 22.4112 19.9535 22.3664C20.2973 21.8084 20.646 21.2603 20.9947 20.7073C21.7819 19.4618 22.599 18.1764 23.3513 16.881C24.5242 14.8567 24.8653 12.456 24.3029 10.185ZM37.5604 32.784C37.0089 32.6348 36.4771 32.4208 35.976 32.1463C34.4465 31.3392 32.9021 30.4922 31.4074 29.6552L29.9427 28.8531L33.3505 22.6404L33.49 22.7151L35.2337 23.6368C36.5241 24.3443 37.8593 25.0766 39.2194 25.7492C41.3128 26.7916 43.728 26.9844 45.9602 26.2873L46.3638 26.1628C46.3621 26.7186 46.285 27.2717 46.1346 27.8069C45.9026 28.6991 45.496 29.5365 44.9384 30.2707C44.3807 31.0048 43.683 31.6212 42.8857 32.084C42.0884 32.5468 41.2072 32.847 40.2931 32.9672C39.379 33.0873 38.4502 33.0251 37.5604 32.784ZM15.8831 24.9073C16.4292 25.0759 16.9528 25.3101 17.4425 25.6048C18.9371 26.4816 20.4318 27.3884 21.9264 28.2652L23.3364 29.1172L19.6695 35.2302L19.535 35.1455L17.856 34.1491C16.5955 33.3869 15.2952 32.5997 13.9849 31.8723C12.6732 31.137 11.194 30.7526 9.69028 30.7563C8.87419 30.7598 8.0614 30.8602 7.26896 31.0552L6.86042 31.1648C6.88208 30.6087 6.98273 30.0585 7.15935 29.5307C7.42785 28.6538 7.86662 27.8385 8.45056 27.1314C9.0345 26.4243 9.75215 25.8393 10.5624 25.4099C11.3727 24.9805 12.2597 24.715 13.1727 24.6288C14.0857 24.5425 15.0067 24.6371 15.8831 24.9073ZM42.1738 9.5822C43.4692 10.2847 44.8094 11.0071 46.1147 11.7395C47.2884 12.3685 48.2221 13.3668 48.7715 14.5799C49.3209 15.793 49.4552 17.1533 49.1538 18.4504C48.9923 19.2025 48.6805 19.9143 48.2371 20.5429C47.2845 19.006 45.951 17.7412 44.366 16.8711C42.9759 16.1038 41.561 15.3366 40.1909 14.5942L38.3974 13.5978L38.2927 13.538L40.8486 8.83986L42.1738 9.5822ZM10.323 47.8899C9.06253 47.1376 7.75223 46.3603 6.48178 45.5781C5.33525 44.9011 4.44393 43.865 3.94585 42.6301C3.44777 41.3953 3.37073 40.0307 3.72666 38.7476C3.91431 38.0007 4.25347 37.3004 4.72309 36.69C5.60673 38.2693 6.88801 39.5901 8.43976 40.5213C9.78992 41.3433 11.17 42.1704 12.5052 42.9675C13.0931 43.3162 13.681 43.665 14.2639 44.0187L14.3685 44.0785L11.6233 48.6671L10.323 47.8899ZM34.3818 50.4606C35.9381 49.5413 37.2304 48.2352 38.1333 46.6692C38.9255 45.2991 39.7226 43.8992 40.4899 42.549L41.4863 40.7704L41.5461 40.6658L46.1944 43.3163C45.9453 43.7547 45.6962 44.1881 45.4521 44.6266C44.7247 45.907 43.9574 47.2322 43.2151 48.5226C42.5609 49.6828 41.5427 50.5951 40.3179 51.1184C39.093 51.6416 37.7299 51.7466 36.4394 51.4172C35.6902 51.2439 34.9847 50.9183 34.3668 50.4606H34.3818ZM38.3675 39.2209L35.1689 44.8109C34.515 46.0007 33.528 46.9738 32.3291 47.6109L32.2444 47.6507C31.9205 46.8295 31.7871 45.9454 31.8545 45.0651C31.9218 44.1849 32.188 43.3314 32.633 42.5689L35.5625 37.4423L36.3348 36.0922C36.4444 36.127 36.554 36.1569 36.6686 36.1818C37.6179 36.4131 38.5911 36.5318 39.5682 36.5356H39.897L38.3675 39.2209ZM36.8728 16.7714L42.5724 19.8753C43.771 20.5111 44.7619 21.4778 45.4272 22.6603L45.472 22.745C44.6529 23.0861 43.7668 23.2359 42.8811 23.1833C41.9953 23.1306 41.1333 22.8768 40.3603 22.4411L35.1689 19.6162L33.8786 18.9137C34.1482 17.7092 34.2106 16.4674 34.0629 15.2419L36.8728 16.7714ZM14.1941 18.7194L17.6816 13.1245C18.3888 11.9673 19.4145 11.0384 20.636 10.4491L20.7207 10.4092C21.0127 11.2472 21.1089 12.1409 21.0018 13.0218C20.8947 13.9027 20.5872 14.7474 20.1029 15.491C19.0667 17.1517 18.0287 18.8124 16.9891 20.4732L16.3713 21.4696C15.1573 21.166 13.9018 21.0634 12.6547 21.1657L14.1941 18.7194ZM15.893 40.9198L10.3479 37.5868C9.17457 36.904 8.22313 35.8972 7.60775 34.6872L7.56291 34.5975C8.39439 34.2875 9.28565 34.1712 10.1689 34.2575C11.0521 34.3439 11.9039 34.6305 12.6596 35.0957L17.7215 38.1249L18.9222 38.8423C18.626 40.0456 18.5234 41.2885 18.6183 42.5241L15.893 40.9198Z" fill="white"/>
<path d="M58.0269 0.499756H56.9359V59.3388H58.0269V0.499756Z" fill="white"/>
<path d="M101.865 8.36133L105.123 12.4865L108.496 16.7562H105.238V45.9466H101.92V16.7562H101.865V8.36133Z" fill="white"/>
<path d="M97.1367 37.5517V8.36133H100.455V37.5517H100.505V45.9466L97.2463 41.8214L93.8784 37.5517H97.1367Z" fill="white"/>
<path d="M207.182 50.1565C207.9 50.9188 212.095 55.5223 213.684 57.271H212.139C212.085 57.2162 208.338 53.1258 207.396 52.0896L207.182 51.8554L203.251 56.16H209.559L210.555 57.271H200.681L207.182 50.1565Z" fill="white"/>
<path d="M215.712 50.1467V55.368C215.724 55.5782 215.816 55.7758 215.969 55.921C216.121 56.0662 216.323 56.1481 216.534 56.1502H225.232C225.338 56.1535 225.443 56.1359 225.542 56.0982C225.64 56.0606 225.73 56.0037 225.807 55.931C225.883 55.8582 225.945 55.7709 225.987 55.6743C226.03 55.5777 226.053 55.4736 226.054 55.368V50.1467H227.21V55.368C227.185 55.8791 226.964 56.3608 226.593 56.7132C226.222 57.0656 225.729 57.2619 225.217 57.2612H216.534C216.022 57.2619 215.53 57.0656 215.159 56.7132C214.788 56.3608 214.566 55.8791 214.541 55.368V50.1467H215.712Z" fill="white"/>
<path d="M228.615 51.2676V50.1466H237.533C238.016 50.121 238.498 50.194 238.951 50.3609C239.405 50.5279 239.819 50.7854 240.169 51.1178C240.52 51.4502 240.799 51.8504 240.99 52.2942C241.18 52.7379 241.279 53.2159 241.279 53.6989C241.279 54.1818 241.18 54.6598 240.99 55.1035C240.799 55.5473 240.52 55.9475 240.169 56.2799C239.819 56.6123 239.405 56.8698 238.951 57.0368C238.498 57.2037 238.016 57.2767 237.533 57.2511H228.615V56.1401H237.508C237.842 56.1614 238.177 56.1141 238.491 56.0011C238.806 55.888 239.094 55.7117 239.338 55.4829C239.582 55.2541 239.776 54.9778 239.909 54.6709C240.042 54.3641 240.111 54.0332 240.111 53.6989C240.111 53.3645 240.042 53.0336 239.909 52.7268C239.776 52.4199 239.582 52.1436 239.338 51.9148C239.094 51.686 238.806 51.5097 238.491 51.3966C238.177 51.2836 237.842 51.2363 237.508 51.2576L228.615 51.2676Z" fill="white"/>
<path d="M242.775 57.2612V50.1467H243.94V57.2612H242.775Z" fill="white"/>
<path d="M245.34 50.1467H258V51.2677H252.241V57.2463H251.08V51.2677H245.34V50.1467Z" fill="white"/>
<path d="M178.64 17.6581C175.358 13.111 171.092 10.8359 165.84 10.8325C163.804 10.8063 161.786 11.2119 159.918 12.0226C158.05 12.8332 156.376 14.0306 155.004 15.5357C153.587 16.9937 152.471 18.7174 151.721 20.6077C150.971 22.498 150.602 24.5178 150.635 26.5512C150.547 30.7385 152.064 34.8009 154.875 37.9055C156.238 39.4621 157.926 40.7013 159.82 41.5361C161.713 42.371 163.767 42.7813 165.835 42.7382C171.082 42.7382 175.247 40.5659 178.375 36.2614H182.77C181.175 39.3233 178.78 41.8956 175.84 43.7047C172.896 45.4622 169.522 46.3678 166.095 46.3203C160.478 46.3203 155.828 44.4155 152.145 40.6058C148.491 36.8559 146.672 32.1578 146.689 26.5113C146.689 21.1605 148.654 16.5321 152.583 12.6261C154.308 10.8555 156.378 9.456 158.663 8.5136C160.949 7.57121 163.403 7.10574 165.875 7.14577C169.436 7.08549 172.941 8.03559 175.984 9.88594C179.022 11.7718 181.48 14.4618 183.084 17.6581H178.64Z" fill="white"/>
<path d="M254.767 41.0742L254.328 7.9231H258V45.5582H253.551L232.89 12.3572L233.304 45.5582H229.662V7.9231H234.106L254.767 41.0742Z" fill="white"/>
<path d="M220.255 11.839C218.368 9.93339 216.116 8.42827 213.633 7.41381C211.151 6.39935 208.489 5.89644 205.807 5.93519C203.16 5.89791 200.533 6.39692 198.084 7.40215C195.636 8.40738 193.416 9.89801 191.558 11.7842C189.532 13.6933 187.925 16.0022 186.837 18.5646C185.75 21.1271 185.206 23.8874 185.241 26.6708C185.241 32.6494 187.154 37.6315 191.005 41.697C192.366 43.1488 193.936 44.3897 195.664 45.3788L191.404 53.6242C191.253 53.9147 191.161 54.232 191.134 54.558C191.106 54.8839 191.142 55.2122 191.241 55.524C191.34 55.8359 191.5 56.1251 191.711 56.3753C191.921 56.6255 192.179 56.8317 192.47 56.9822L193.397 57.4804C193.687 57.6317 194.005 57.7241 194.332 57.7524C194.658 57.7807 194.987 57.7442 195.299 57.6452C195.612 57.5461 195.902 57.3864 196.152 57.1752C196.403 56.964 196.609 56.7054 196.76 56.4142L201.363 47.5061C202.809 47.7897 204.279 47.9299 205.752 47.9246C208.658 47.9721 211.539 47.3836 214.193 46.2002C216.847 45.0168 219.211 43.2673 221.117 41.0742C224.665 37.1682 226.438 32.3638 226.438 26.6609C226.492 23.8966 225.97 21.1513 224.906 18.5996C223.841 16.0478 222.258 13.7455 220.255 11.839ZM217.819 38.8671C216.35 40.5435 214.532 41.8775 212.492 42.7753C210.452 43.6731 208.24 44.1128 206.011 44.0635C203.77 44.1167 201.543 43.6894 199.481 42.8103C197.418 41.9312 195.568 40.6206 194.054 38.9668C190.95 35.6387 189.396 31.5633 189.396 26.7107C189.44 23.9071 190.152 21.1544 191.473 18.6814C192.795 16.2084 194.687 14.0863 196.994 12.4917C199.566 10.7107 202.624 9.76283 205.752 9.77641C207.954 9.7458 210.138 10.1728 212.167 11.0305C214.195 11.8881 216.023 13.1576 217.535 14.7585C219.101 16.307 220.336 18.1572 221.166 20.1971C221.996 22.237 222.403 24.4242 222.363 26.626C222.363 31.4138 220.838 35.5141 217.819 38.8671Z" fill="white"/>
<path d="M204.91 12.1776C207.594 12.1778 210.226 12.908 212.527 14.2899C214.827 15.6718 216.708 17.6534 217.968 20.0224C219.228 22.3915 219.821 25.0587 219.681 27.7384C219.542 30.4182 218.676 33.0096 217.176 35.2349C219.169 32.8295 220.321 29.838 220.455 26.7169C220.589 23.5959 219.699 20.5167 217.919 17.9491C216.14 15.3815 213.569 13.4666 210.6 12.4965C207.63 11.5264 204.425 11.5544 201.473 12.5762C202.599 12.3114 203.753 12.1776 204.91 12.1776Z" fill="white"/>
</g>
<defs>
<clipPath id="clip0_2454_1108">
<rect width="258" height="58.839" fill="white" transform="translate(0 0.499756)"/>
</clipPath>
</defs>
</svg>
